<?xml version="1.0" encoding="iso-8859-1"?>
<!-- Generator: Adobe Illustrator 19.0.0, SVG Export Plug-In . SVG Version: 6.00 Build 0)  -->
<svg xmlns="http://www.w3.org/2000/svg" xmlns:xlink="http://www.w3.org/1999/xlink" version="1.1" id="Capa_1" x="0px" y="0px" viewBox="0 0 512 512" style="enable-background:new 0 0 512 512;" xml:space="preserve" width="512px" height="512px">
<g>
	<g>
		<path d="M448.204,293.19v-14.918c0-32.269-26.252-58.521-58.521-58.521s-58.521,26.252-58.521,58.521v161.934    c0,27.003-21.969,48.972-48.971,48.972H216.73c-27.003,0-48.971-21.969-48.971-48.972V326.992    c84.571-4.093,152.116-74.176,152.116-159.743c0-88.189-71.747-159.937-159.937-159.937S0,79.059,0,167.248    c0,85.612,67.616,155.722,152.248,159.748v113.21c0,35.555,28.926,64.482,64.481,64.482h65.461    c35.555,0,64.481-28.926,64.481-64.482V278.273c0-23.716,19.295-43.011,43.011-43.011c23.716,0,43.011,19.295,43.011,43.011    v14.918c-35.818,3.879-63.796,34.291-63.796,71.124v68.822c0,39.453,32.097,71.551,71.551,71.551S512,472.591,512,433.136v-68.822    C512,327.482,484.022,297.07,448.204,293.19z M111.347,31.24c-6.294,6.851-12.136,15.097-17.397,24.662    c-3.214,5.84-6.134,12.062-8.77,18.589c-7.349-4.451-14.337-9.584-20.881-15.367C77.938,47.047,93.867,37.503,111.347,31.24z     M53.222,70.031c8.275,7.413,17.206,13.87,26.646,19.335c-6.728,21.32-10.625,45.204-11.292,70.128H15.719    C17.546,125.135,31.436,93.924,53.222,70.031z M64.43,275.488c6.518-5.775,13.478-10.902,20.797-15.353    c7.086,17.569,15.999,32.119,26.164,43.136C93.95,297.028,78.051,287.521,64.43,275.488z M152.182,310.857    c-20.788-4.296-40.394-25.597-53.183-58.093c16.56-7.737,34.549-12.266,53.183-13.264V310.857z M152.182,223.963    c-23.209,1.122-45.529,7.197-65.732,17.698c-0.53,0.207-1.024,0.467-1.48,0.771c-11.295,6.022-21.912,13.439-31.629,22.164    c-21.854-23.912-35.792-55.171-37.622-89.592h52.864c0.424,15.804,2.134,31.279,5.119,46.1c0.846,4.199,4.936,6.918,9.133,6.072    c4.199-0.846,6.917-4.935,6.072-9.133c-2.784-13.821-4.387-28.268-4.805-43.038h68.08V223.963z M152.182,159.494H84.095    c0.629-22.37,3.987-43.766,9.761-62.932c18.206,8.248,37.926,13.029,58.326,13.983V159.494z M152.182,95.01    c-18.643-0.966-36.649-5.465-53.228-13.177c2.562-6.507,5.415-12.693,8.585-18.456c12.457-22.646,28.08-36.473,44.643-39.777    V95.01z M208.527,303.256c6.294-6.851,12.136-15.097,17.398-24.662c3.213-5.841,6.134-12.063,8.77-18.59    c7.349,4.451,14.337,9.584,20.881,15.367C241.936,287.45,226.007,296.992,208.527,303.256z M266.652,264.466    c-8.275-7.413-17.206-13.87-26.646-19.336c6.727-21.319,10.625-45.203,11.292-70.127h52.856    C302.328,209.362,288.438,240.573,266.652,264.466z M304.154,159.494h-52.856c-0.668-24.973-4.58-48.904-11.332-70.256    c9.412-5.47,18.316-11.927,26.567-19.336C288.387,93.813,302.324,125.073,304.154,159.494z M255.445,59.008    c-6.52,5.776-13.48,10.903-20.801,15.354c-2.623-6.479-5.528-12.657-8.72-18.46c-5.262-9.565-11.103-17.811-17.397-24.662    C225.951,37.484,241.835,46.984,255.445,59.008z M167.692,23.601c16.563,3.303,32.186,17.131,44.643,39.776    c3.153,5.732,5.994,11.883,8.545,18.353c-16.562,7.738-34.552,12.267-53.188,13.266V23.601z M167.692,110.534    c20.396-0.986,40.103-5.8,58.294-14.076c6.365,21.083,9.794,44.876,9.893,69.69c-0.105,0.736-0.105,1.463,0,2.199    c-0.099,24.774-3.516,48.529-9.86,69.586c-18.206-8.248-37.926-13.029-58.326-13.982v-48.949h42.322    c4.283,0,7.755-3.472,7.755-7.755c-0.002-4.282-3.474-7.754-7.756-7.754h-42.322V110.534z M167.692,239.485    c18.643,0.966,36.649,5.465,53.228,13.177c-2.562,6.508-5.415,12.695-8.585,18.457c-12.457,22.645-28.08,36.472-44.643,39.776    V239.485z M432.694,488.63c-27.243-3.79-48.286-27.224-48.286-55.493v-68.822c0-28.269,21.044-51.703,48.286-55.492v19.902    c-9.125,3.209-15.687,11.909-15.687,22.118v20.18c0,10.209,6.562,18.909,15.687,22.118V488.63z M440.449,378.954    c-4.374,0-7.932-3.558-7.932-7.933v-20.18c0-4.374,3.558-7.933,7.932-7.933c4.374,0,7.933,3.558,7.933,7.933v20.18    C448.381,375.396,444.823,378.954,440.449,378.954z M496.49,433.136c0,28.269-21.044,51.703-48.287,55.492V393.14    c9.126-3.209,15.687-11.909,15.687-22.118v-20.18c0-10.209-6.562-18.909-15.687-22.118v-19.902    c27.243,3.789,48.287,27.223,48.287,55.492V433.136z" fill="#676a6c"/>
	</g>
</g>
<g>
</g>
<g>
</g>
<g>
</g>
<g>
</g>
<g>
</g>
<g>
</g>
<g>
</g>
<g>
</g>
<g>
</g>
<g>
</g>
<g>
</g>
<g>
</g>
<g>
</g>
<g>
</g>
<g>
</g>
</svg>
