<?xml version="1.0" encoding="iso-8859-1"?>
<!-- Generator: Adobe Illustrator 19.0.0, SVG Export Plug-In . SVG Version: 6.00 Build 0)  -->
<svg xmlns="http://www.w3.org/2000/svg" xmlns:xlink="http://www.w3.org/1999/xlink" version="1.1" id="Capa_1" x="0px" y="0px" viewBox="0 0 512 512" style="enable-background:new 0 0 512 512;" xml:space="preserve" width="512px" height="512px">
<g>
	<g>
		<path d="M256,151c-33.084,0-60,26.916-60,60s26.916,60,60,60s60-26.916,60-60S289.084,151,256,151z M256,241    c-16.542,0-30-13.458-30-30s13.458-30,30-30s30,13.458,30,30S272.542,241,256,241z" fill="#676a6c"/>
	</g>
</g>
<g>
	<g>
		<path d="M497,210.999h-20.79c-5.745-28.054-16.894-54.91-32.729-78.843l14.044-14.043c2.813-2.813,4.394-6.628,4.394-10.607    c0-3.978-1.58-7.793-4.394-10.606L415.1,54.475c-5.857-5.858-15.355-5.858-21.213,0l-14.044,14.043    C355.909,52.685,329.054,41.536,301,35.791V15c0-8.284-6.716-15-15-15h-60c-8.284,0-15,6.716-15,15v20.791    c-28.054,5.746-54.909,16.894-78.843,32.728l-14.044-14.043c-5.857-5.858-15.355-5.858-21.213,0L54.475,96.9    c-2.813,2.813-4.394,6.628-4.394,10.606c0,3.979,1.58,7.793,4.394,10.607l14.044,14.043C52.685,156.089,41.536,182.945,35.791,211    H15c-8.284,0-15,6.716-15,15v60c0,8.284,6.716,15,15,15h20.79c5.744,28.053,16.893,54.909,32.727,78.842l-14.042,14.042    c-5.857,5.858-5.858,15.355,0,21.213L96.9,457.525c2.813,2.813,6.628,4.394,10.606,4.394c3.978,0,7.794-1.581,10.606-4.394    l14.044-14.043c23.934,15.834,50.789,26.982,78.843,32.728V497c0,8.284,6.716,15,15,15h60c8.284,0,15-6.716,15-15v-20.791    c28.054-5.746,54.909-16.894,78.843-32.728l14.044,14.043c2.813,2.813,6.628,4.394,10.606,4.394c3.978,0,7.794-1.581,10.606-4.394    l42.426-42.427c5.858-5.858,5.857-15.355,0-21.213l-14.042-14.042c15.834-23.933,26.982-50.788,32.728-78.843H497    c8.284,0,15-6.716,15-15v-60C512,217.715,505.284,210.999,497,210.999z M482,271h-18.395c-7.458,0-13.783,5.479-14.847,12.862    c-4.613,32.031-17.342,62.693-36.808,88.671c-4.475,5.972-3.879,14.325,1.397,19.601l12.357,12.357l-21.213,21.213l-12.358-12.358    c-5.277-5.277-13.631-5.872-19.601-1.398c-25.98,19.466-56.644,32.195-88.673,36.809c-7.382,1.063-12.861,7.389-12.861,14.847V482    h-30v-18.395c0-7.458-5.479-13.783-12.861-14.847c-32.029-4.614-62.692-17.343-88.673-36.809    c-5.972-4.473-14.323-3.88-19.601,1.398l-12.358,12.358l-21.213-21.213l12.357-12.357c5.276-5.276,5.872-13.629,1.397-19.601    c-19.467-25.98-32.194-56.642-36.807-88.671C62.18,276.48,55.854,271,48.396,271H30v-30h18.396    c7.458,0,13.783-5.479,14.847-12.861c4.614-32.032,17.343-62.694,36.809-88.672c4.475-5.972,3.879-14.325-1.397-19.601    l-12.359-12.359l21.213-21.212l12.358,12.358c5.275,5.277,13.629,5.871,19.601,1.398c25.98-19.466,56.644-32.195,88.673-36.809    C235.521,62.178,241,55.853,241,48.395V30h30v18.395c0,7.458,5.479,13.783,12.861,14.847    c32.029,4.614,62.692,17.343,88.673,36.809c5.97,4.472,14.323,3.879,19.601-1.398l12.358-12.358l21.213,21.212l-12.359,12.359    c-5.276,5.276-5.872,13.629-1.397,19.601c19.467,25.979,32.195,56.641,36.81,88.672c1.063,7.382,7.389,12.861,14.847,12.861H482    V271z" fill="#676a6c"/>
	</g>
</g>
<g>
	<g>
		<path d="M256,91c-90.981,0-165,74.019-165,165c0,90.783,73.854,165,165,165c91.044,0,165-74.114,165-165    C421,165.019,346.981,91,256,91z M256,391c-27.569,0-53.229-8.313-74.62-22.555C185.181,330.625,217.195,301,256,301    s70.819,29.625,74.62,67.445C309.229,382.687,283.569,391,256,391z M356.602,345.919C343.636,302.636,303.447,271,256,271    c-47.447,0-87.636,31.636-100.602,74.919C134.02,322.027,121,290.507,121,256c0-74.439,60.561-135,135-135s135,60.561,135,135    C391,290.507,377.98,322.027,356.602,345.919z" fill="#676a6c"/>
	</g>
</g>
<g>
</g>
<g>
</g>
<g>
</g>
<g>
</g>
<g>
</g>
<g>
</g>
<g>
</g>
<g>
</g>
<g>
</g>
<g>
</g>
<g>
</g>
<g>
</g>
<g>
</g>
<g>
</g>
<g>
</g>
</svg>
