<svg xmlns="http://www.w3.org/2000/svg" width="43.993" height="43.993" viewBox="0 0 43.993 43.993">
  <path id="direct" d="M12.913,25.326a1,1,0,0,0-1.419,0L8.865,27.955a1,1,0,0,0,1.419,1.419l2.629-2.629A1,1,0,0,0,12.913,25.326ZM5.782,18.194a1,1,0,0,0-1.419,0L1.734,20.823a1,1,0,0,0,1.419,1.419l2.629-2.629a1,1,0,0,0,0-1.419Zm4.754,2.377a1,1,0,0,0-1.419,0L2.454,27.234a1,1,0,0,0,1.419,1.419l6.663-6.663A1,1,0,0,0,10.536,20.571ZM31.057,1.316l-9.509,29.1a1,1,0,0,1-1.821.193l-6.395-11a1,1,0,0,1,.061-1.1l2.3-3.091-3.091,2.3a1,1,0,0,1-1.1.061L.5,11.381A1,1,0,0,1,.691,9.56L29.791.051a1,1,0,0,1,1.266,1.266Z" transform="translate(21.996) rotate(45)" fill="#fff"/>
</svg>
