<?xml version="1.0" encoding="iso-8859-1"?>
<!-- Generator: Adobe Illustrator 18.0.0, SVG Export Plug-In . SVG Version: 6.00 Build 0)  -->
<!DOCTYPE svg PUBLIC "-//W3C//DTD SVG 1.1//EN" "http://www.w3.org/Graphics/SVG/1.1/DTD/svg11.dtd">
<svg xmlns="http://www.w3.org/2000/svg" xmlns:xlink="http://www.w3.org/1999/xlink" version="1.1" id="Capa_1" x="0px" y="0px" viewBox="0 0 348.139 348.139" style="enable-background:new 0 0 348.139 348.139;" xml:space="preserve" width="512px" height="512px">
<g>
	<path d="M345.109,196.966c-3.756-4.505-11.196-7.417-18.956-7.417c-0.612,0-1.215,0.019-1.806,0.055   c-13.916,0.859-30.566,10.2-48.225,20.106c-9.085,5.096-18.48,10.366-27.698,14.542c-10.97,4.966-25.122,7.484-42.063,7.484   c-21.587,0-40.067-4.079-42.169-4.559c4.325-2.03,16.139-5.307,26.563-8.197c10.291-2.854,17.241-4.814,19.973-6.011   c20.611-6.893,28.216-19.924,26.61-29.782c-1.136-6.976-6.818-11.662-14.225-11.662c-0.001,0-0.002,0-0.003,0   c-19.749,0.333-40.876,1.33-81.977,9.762c-61.19,13.344-75.422,30.989-95.12,55.41c-10.625,13.172-22.669,28.103-44.174,45.661   c-1.202,0.981-1.88,2.465-1.836,4.016c0.044,1.551,0.807,2.994,2.063,3.905l49.608,35.973c0.88,0.638,1.909,0.952,2.934,0.952   c1.244,0,2.481-0.463,3.439-1.37c18.854-17.858,43.757-36.941,57.109-36.941c37.399,0,45.064-0.434,70.468-1.873   c5.083-0.288,10.88-0.617,17.766-0.99c17.976-0.962,21.506-1.707,31.531-5.087c51.699-17.479,106.711-62.789,112.298-71.361   c0.401-0.616,0.662-1.312,0.763-2.04C348.547,203.488,347.581,199.93,345.109,196.966z" fill="#676a6c"/>
	<path d="M168.942,128.328c17.282,0,32.6-11.297,37.958-27.408c0.179,0.003,0.365,0.018,0.542,0.018c22.057,0,40-17.944,40-40.001   c0-22.057-17.943-40.001-40-40.001c-17.283,0-32.6,11.297-37.957,27.408c-0.18-0.003-0.365-0.018-0.543-0.018   c-22.056,0-40,17.944-40,40.001C128.942,110.384,146.887,128.328,168.942,128.328z M178.109,54.64c0,0,0-0.001,0-0.002   c2.933-13.734,15.268-23.703,29.333-23.703c16.542,0,30,13.458,30,30.001s-13.458,30.001-30,30.001   c-1.186,0-2.387-0.076-3.672-0.233c-15.01-1.83-26.328-14.627-26.328-29.768C177.442,58.831,177.667,56.713,178.109,54.64z    M167.535,58.362c-0.055,0.858-0.093,1.717-0.093,2.575c0,2.112,0.172,4.187,0.491,6.218h-1.38c-0.828,0-1.5,0.671-1.5,1.5v2.908   c-4.982,1.299-8.023,4.759-8.023,9.251c0,7.839,6.74,9.881,11.202,11.233c5.113,1.549,5.836,2.242,5.821,4   c0,2.059-3.354,2.608-5.337,2.608c-2.459,0-5.119-1.066-6.621-2.652c-0.273-0.288-0.65-0.457-1.048-0.468   c-0.396-0.014-0.783,0.137-1.072,0.41l-2.905,2.75c-0.289,0.273-0.458,0.65-0.469,1.048c-0.011,0.397,0.137,0.783,0.41,1.072   c2.018,2.13,4.896,3.698,8.042,4.407v2.779c0,0.829,0.672,1.5,1.5,1.5h4c0.829,0,1.5-0.671,1.5-1.5v-2.646   c5.513-1.01,9-4.552,9-9.278c0.063-7.441-6.47-9.42-10.793-10.729c-4.902-1.485-6.23-2.216-6.23-4.533   c0-2.22,3.509-2.813,5.582-2.813c0.558,0,1.145,0.055,1.732,0.148c4.921,10.292,14.123,18.223,25.444,21.339   c-4.493,11.163-15.503,18.841-27.846,18.841c-16.542,0-30-13.458-30-30.001C138.942,72.256,151.645,59.1,167.535,58.362z" fill="#676a6c"/>
	<path d="M274.632,148.572c20.126,0,36.5-16.374,36.5-36.499s-16.374-36.499-36.5-36.499s-36.5,16.373-36.5,36.499   S254.506,148.572,274.632,148.572z M274.632,85.574c14.612,0,26.5,11.887,26.5,26.499s-11.888,26.499-26.5,26.499   s-26.5-11.887-26.5-26.499S260.02,85.574,274.632,85.574z" fill="#676a6c"/>
	<path d="M274.794,122.4c-2.458,0-5.118-1.066-6.62-2.652c-0.273-0.288-0.65-0.457-1.048-0.468c-0.386-0.014-0.784,0.137-1.072,0.41   l-2.905,2.75c-0.602,0.569-0.628,1.519-0.059,2.121c2.017,2.13,4.896,3.698,8.042,4.407v2.778c0,0.829,0.672,1.5,1.5,1.5h4   c0.829,0,1.5-0.671,1.5-1.5v-2.646c5.513-1.01,9-4.553,9-9.278c0.063-7.441-6.47-9.42-10.793-10.729   c-4.902-1.485-6.23-2.216-6.23-4.533c0-2.22,3.509-2.813,5.582-2.813c1.96,0,4.294,0.624,5.676,1.517   c0.694,0.449,1.624,0.25,2.074-0.446l2.171-3.359c0.449-0.696,0.25-1.624-0.446-2.074c-1.896-1.225-4.446-2.109-7.033-2.462v-2.521   c0-0.829-0.671-1.5-1.5-1.5h-4c-0.828,0-1.5,0.671-1.5,1.5v2.908c-4.982,1.299-8.023,4.759-8.023,9.25   c0,7.839,6.74,9.881,11.202,11.233c5.113,1.549,5.836,2.242,5.821,3.999C280.132,121.85,276.776,122.4,274.794,122.4z" fill="#676a6c"/>
	<path d="M207.994,69.101c-2.459,0-5.119-1.066-6.621-2.652c-0.273-0.289-0.65-0.457-1.048-0.468   c-0.393-0.014-0.783,0.137-1.072,0.41l-2.905,2.75c-0.289,0.273-0.458,0.65-0.469,1.048c-0.011,0.398,0.137,0.783,0.41,1.072   c2.018,2.13,4.896,3.698,8.042,4.407v2.779c0,0.829,0.672,1.5,1.5,1.5h4c0.829,0,1.5-0.671,1.5-1.5V75.8   c5.513-1.01,9-4.552,9-9.278c0.063-7.441-6.47-9.419-10.793-10.728c-4.902-1.485-6.23-2.216-6.23-4.533   c0-2.22,3.509-2.813,5.582-2.813c1.96,0,4.294,0.624,5.676,1.517c0.695,0.449,1.624,0.25,2.074-0.446l2.171-3.359   c0.449-0.696,0.25-1.624-0.446-2.074c-1.895-1.225-4.446-2.109-7.033-2.462v-2.521c0-0.829-0.671-1.5-1.5-1.5h-4   c-0.828,0-1.5,0.671-1.5,1.5v2.908c-4.982,1.299-8.023,4.759-8.023,9.25c0,7.839,6.74,9.881,11.202,11.233   c5.113,1.549,5.836,2.242,5.821,4C213.331,68.551,209.977,69.101,207.994,69.101z" fill="#676a6c"/>
</g>
<g>
</g>
<g>
</g>
<g>
</g>
<g>
</g>
<g>
</g>
<g>
</g>
<g>
</g>
<g>
</g>
<g>
</g>
<g>
</g>
<g>
</g>
<g>
</g>
<g>
</g>
<g>
</g>
<g>
</g>
</svg>
