<?xml version="1.0" encoding="iso-8859-1"?>
<!-- Generator: Adobe Illustrator 19.0.0, SVG Export Plug-In . SVG Version: 6.00 Build 0)  -->
<svg xmlns="http://www.w3.org/2000/svg" xmlns:xlink="http://www.w3.org/1999/xlink" version="1.1" id="Capa_1" x="0px" y="0px" viewBox="0 0 480 480" style="enable-background:new 0 0 480 480;" xml:space="preserve" width="512px" height="512px">
<g>
	<g>
		<path d="M400,0H112C92.432,0,76.168,14.144,72.736,32.736C54.144,36.168,40,52.432,40,72v368c0,22.056,17.944,40,40,40h288    c19.568,0,35.832-14.144,39.264-32.736C425.856,443.832,440,427.568,440,408V40C440,17.944,422.056,0,400,0z M392,440    c0,13.232-10.768,24-24,24H80c-13.232,0-24-10.768-24-24V72c0-13.232,10.768-24,24-24h240v64c0,4.424,3.584,8,8,8h64V440z     M336,104V59.312L380.688,104H336z M424,408c0,10.416-6.712,19.216-16,22.528V112c0-2.216-0.896-4.216-2.352-5.664l-71.984-71.984    C332.216,32.896,330.216,32,328,32H89.472c3.312-9.288,12.112-16,22.528-16h288c13.232,0,24,10.768,24,24V408z" fill="#676a6c"/>
	</g>
</g>
<g>
	<g>
		<path d="M224,120c-61.76,0-112,50.24-112,112s50.24,112,112,112s112-50.24,112-112S285.76,120,224,120z M224,328    c-52.936,0-96-43.064-96-96c0-52.936,43.064-96,96-96c52.936,0,96,43.064,96,96C320,284.936,276.936,328,224,328z" fill="#676a6c"/>
	</g>
</g>
<g>
	<g>
		
			<rect x="166.318" y="223.989" transform="matrix(0.5547 -0.8321 0.8321 0.5547 -93.2743 289.7004)" width="115.381" height="16.001" fill="#676a6c"/>
	</g>
</g>
<g>
	<g>
		<path d="M264,232c-13.232,0-24,10.768-24,24s10.768,24,24,24s24-10.768,24-24S277.232,232,264,232z M264,264c-4.408,0-8-3.584-8-8    c0-4.416,3.592-8,8-8c4.408,0,8,3.584,8,8C272,260.416,268.408,264,264,264z" fill="#676a6c"/>
	</g>
</g>
<g>
	<g>
		<path d="M184,184c-13.232,0-24,10.768-24,24s10.768,24,24,24s24-10.768,24-24S197.232,184,184,184z M184,216c-4.408,0-8-3.584-8-8    s3.592-8,8-8s8,3.584,8,8S188.408,216,184,216z" fill="#676a6c"/>
	</g>
</g>
<g>
	<g>
		<path d="M266.344,354.344L224,396.688l-18.344-18.344l-11.312,11.312l24,24c1.56,1.56,3.608,2.344,5.656,2.344    c2.048,0,4.096-0.784,5.656-2.344l48-48L266.344,354.344z" fill="#676a6c"/>
	</g>
</g>
<g>
</g>
<g>
</g>
<g>
</g>
<g>
</g>
<g>
</g>
<g>
</g>
<g>
</g>
<g>
</g>
<g>
</g>
<g>
</g>
<g>
</g>
<g>
</g>
<g>
</g>
<g>
</g>
<g>
</g>
</svg>
